<svg width="37" height="36" viewBox="0 0 37 36" fill="none" xmlns="http://www.w3.org/2000/svg">
<path d="M18.25 15H18.265" stroke="#0D0D0D" stroke-width="1.5" stroke-linecap="round" stroke-linejoin="round"/>
<path d="M18.25 21H18.265" stroke="#0D0D0D" stroke-width="1.5" stroke-linecap="round" stroke-linejoin="round"/>
<path d="M18.25 9H18.265" stroke="#0D0D0D" stroke-width="1.5" stroke-linecap="round" stroke-linejoin="round"/>
<path d="M24.25 15H24.265" stroke="#0D0D0D" stroke-width="1.5" stroke-linecap="round" stroke-linejoin="round"/>
<path d="M24.25 21H24.265" stroke="#0D0D0D" stroke-width="1.5" stroke-linecap="round" stroke-linejoin="round"/>
<path d="M24.25 9H24.265" stroke="#0D0D0D" stroke-width="1.5" stroke-linecap="round" stroke-linejoin="round"/>
<path d="M12.25 15H12.265" stroke="#0D0D0D" stroke-width="1.5" stroke-linecap="round" stroke-linejoin="round"/>
<path d="M12.25 21H12.265" stroke="#0D0D0D" stroke-width="1.5" stroke-linecap="round" stroke-linejoin="round"/>
<path d="M12.25 9H12.265" stroke="#0D0D0D" stroke-width="1.5" stroke-linecap="round" stroke-linejoin="round"/>
<path d="M13.75 33V28.5C13.75 28.1022 13.908 27.7206 14.1893 27.4393C14.4706 27.158 14.8522 27 15.25 27H21.25C21.6478 27 22.0294 27.158 22.3107 27.4393C22.592 27.7206 22.75 28.1022 22.75 28.5V33" stroke="#0D0D0D" stroke-width="1.5" stroke-linecap="round" stroke-linejoin="round"/>
<path d="M27.25 3H9.25C7.59315 3 6.25 4.34315 6.25 6V30C6.25 31.6569 7.59315 33 9.25 33H27.25C28.9069 33 30.25 31.6569 30.25 30V6C30.25 4.34315 28.9069 3 27.25 3Z" stroke="#0D0D0D" stroke-width="1.5" stroke-linecap="round" stroke-linejoin="round"/>
</svg>
