<svg width="20" height="20" viewBox="0 0 20 20" fill="none" xmlns="http://www.w3.org/2000/svg">
<path d="M13.3332 4.99992V14.5833C13.3332 16.4249 11.8415 17.9166 9.99984 17.9166C8.15817 17.9166 6.6665 16.4249 6.6665 14.5833V4.16658C6.6665 3.01659 7.59984 2.08325 8.74984 2.08325C9.89984 2.08325 10.8332 3.01659 10.8332 4.16658V12.9166C10.8332 13.3749 10.4582 13.7499 9.99984 13.7499C9.5415 13.7499 9.1665 13.3749 9.1665 12.9166V4.99992H7.9165V12.9166C7.9165 14.0666 8.84984 14.9999 9.99984 14.9999C11.1498 14.9999 12.0832 14.0666 12.0832 12.9166V4.16658C12.0832 2.32492 10.5915 0.833252 8.74984 0.833252C6.90817 0.833252 5.4165 2.32492 5.4165 4.16658V14.5833C5.4165 17.1166 7.4665 19.1666 9.99984 19.1666C12.5332 19.1666 14.5832 17.1166 14.5832 14.5833V4.99992H13.3332Z" fill="#2569F2"/>
</svg>
