<svg width="17" height="16" viewBox="0 0 17 16" fill="none" xmlns="http://www.w3.org/2000/svg">
<g clip-path="url(#clip0_17084_11518)">
<path d="M1.68752 3.25C1.90502 3.37518 2.0442 3.50753 2.12502 3.75C2.12502 5.44125 2.12502 7.1325 2.12502 8.875C6.76565 8.875 11.4063 8.875 16.1875 8.875C16.1875 12.3125 16.1875 12.3125 15.9375 12.625C15.672 12.7452 15.5477 12.7635 15.2657 12.6836C15.0625 12.5625 15.0625 12.5625 14.875 12.25C14.875 11.8169 14.875 11.3837 14.875 10.9375C10.6675 10.9375 6.46003 10.9375 2.12502 10.9375C2.12502 11.3706 2.12502 11.8038 2.12502 12.25C1.88874 12.6438 1.88874 12.6438 1.68752 12.75C1.41309 12.7856 1.28267 12.7681 1.03909 12.6328C0.875025 12.5 0.875025 12.5 0.812525 12.375C0.806016 12.2601 0.803532 12.145 0.802906 12.0299C0.802369 11.9565 0.801831 11.8832 0.801277 11.8076C0.801011 11.7268 0.800745 11.6459 0.80047 11.5625C0.799977 11.4768 0.79946 11.3911 0.798922 11.3054C0.797282 11.0235 0.796326 10.7416 0.795435 10.4597C0.7951 10.3627 0.794764 10.2657 0.794427 10.1687C0.793075 9.76526 0.791904 9.36181 0.7912 8.95835C0.790185 8.37993 0.788111 7.80153 0.78455 7.22312C0.782132 6.81653 0.780911 6.40995 0.78058 6.00336C0.780352 5.76046 0.779599 5.51758 0.777574 5.27469C0.775695 5.04614 0.775299 4.81763 0.776035 4.58907C0.776056 4.4653 0.774526 4.34154 0.772949 4.21778C0.777206 3.61291 0.777206 3.61291 0.963242 3.42036C1.22277 3.24734 1.37149 3.2184 1.68752 3.25Z" fill="#6B4EFF"/>
<path d="M8.19048 4.73283C8.28505 4.73235 8.28505 4.73235 8.38153 4.73186C8.58989 4.731 8.79823 4.73106 9.00659 4.7312C9.15178 4.73096 9.29697 4.73069 9.44216 4.73039C9.74662 4.72992 10.0511 4.72994 10.3555 4.73027C10.7447 4.73063 11.1338 4.72957 11.5229 4.72812C11.8229 4.7272 12.1229 4.72715 12.4229 4.72734C12.5663 4.72731 12.7097 4.72698 12.8531 4.72635C13.0543 4.72558 13.2554 4.72601 13.4566 4.72673C13.5152 4.72625 13.5738 4.72577 13.6342 4.72528C14.4012 4.73133 14.9779 4.99971 15.543 5.50781C16.3298 6.32766 16.1875 7.2713 16.1875 8.375C13.0319 8.375 9.87625 8.375 6.625 8.375C6.625 5.6875 6.625 5.6875 6.875 5.1875C7.29415 4.77726 7.62922 4.73137 8.19048 4.73283Z" fill="#6B4EFF"/>
<path d="M5.31259 5.25C5.48837 5.39063 5.48837 5.39063 5.62509 5.5625C5.65337 5.59779 5.68165 5.63308 5.71079 5.66944C5.95516 6.00865 6.01967 6.33481 6.00009 6.75C5.92416 7.19835 5.69208 7.62191 5.3248 7.89698C4.91972 8.13864 4.52555 8.17011 4.06259 8.125C3.52949 7.97433 3.22217 7.65503 2.93759 7.1875C2.80299 6.7837 2.79302 6.24114 2.96884 5.84766C3.20337 5.46283 3.5653 5.16181 3.99643 5.02735C4.48007 4.92456 4.8791 5.01764 5.31259 5.25Z" fill="#6B4EFF"/>
</g>
<defs>
<clipPath id="clip0_17084_11518">
<rect width="16" height="16" fill="white" transform="translate(0.5)"/>
</clipPath>
</defs>
</svg>
