<svg width="32" height="32" viewBox="0 0 32 32" fill="none" xmlns="http://www.w3.org/2000/svg">
<g clip-path="url(#clip0_245_3758)">
<mask id="mask0_245_3758" style="mask-type:alpha" maskUnits="userSpaceOnUse" x="0" y="0" width="32" height="32">
<path d="M16 32C24.8366 32 32 24.8366 32 16C32 7.16344 24.8366 0 16 0C7.16344 0 0 7.16344 0 16C0 24.8366 7.16344 32 16 32Z" fill="white"/>
</mask>
<g mask="url(#mask0_245_3758)">
<path d="M0 11.125L15.8875 9.75L32 11.125V12.5188L29.4875 15.9L32 19.4813V20.875L16.125 22.3375L0 20.875V19.4813L2.29375 15.7688L0 12.5188V11.125Z" fill="#D80027"/>
<path d="M0 0H32V11.125H0V0Z" fill="#338AF3"/>
<path d="M0 12.5187H32V19.4812H0V12.5187Z" fill="#EEEEEE"/>
<path d="M0 20.875H32V32H0V20.875Z" fill="#6DA544"/>
<path d="M7.325 6.60624C7.32416 5.89299 7.56735 5.20092 8.01416 4.64496C8.46097 4.089 9.08452 3.70262 9.78125 3.54999C9.56143 3.50319 9.33723 3.48014 9.1125 3.48124C8.67795 3.48802 8.24959 3.58537 7.85479 3.76706C7.45999 3.94875 7.10743 4.2108 6.81964 4.53645C6.53184 4.86211 6.31513 5.24421 6.18336 5.65835C6.05159 6.07249 6.00765 6.50957 6.05435 6.94166C6.10105 7.37374 6.23736 7.79133 6.45458 8.16776C6.6718 8.54418 6.96514 8.87116 7.31587 9.1278C7.66661 9.38444 8.06701 9.5651 8.49152 9.65825C8.91602 9.75139 9.35528 9.75496 9.78125 9.66874C8.375 9.35624 7.325 8.10624 7.325 6.60624ZM11.6375 8.03124L11.8437 8.68124H12.5312L11.9687 9.08749L12.1875 9.73749L11.625 9.33749L11.0812 9.73749L11.2937 9.08749L10.7312 8.68124H11.4187L11.6375 8.03124ZM13.825 8.03124L14.0375 8.68124H14.725L14.1625 9.08749L14.375 9.73749L13.825 9.33749L13.2625 9.73749L13.4812 9.08749L12.9187 8.68124H13.6062L13.825 8.03124ZM16.0125 8.03124L16.225 8.68124H16.9125L16.35 9.08749L16.5687 9.73749L16.0062 9.33749L15.4562 9.73749L15.6687 9.08749L15.1062 8.68124H15.7937L16.0125 8.03124ZM18.2 8.03124L18.4125 8.68124H19.1L18.5375 9.08749L18.7562 9.73749L18.1937 9.33749L17.6437 9.73749L17.8562 9.08749L17.2937 8.68124H17.9812L18.2 8.03124ZM20.3875 8.03124L20.6 8.68124H21.2875L20.725 9.08749L20.9437 9.73749L20.3812 9.33749L19.8312 9.73749L20.0437 9.08749L19.4937 8.68124H20.1812L20.3875 8.03124ZM13.825 5.75624L14.0375 6.40624H14.725L14.1625 6.81249L14.375 7.46249L13.825 7.05624L13.2625 7.46249L13.4812 6.81249L12.9187 6.40624H13.6062L13.825 5.75624ZM16.0125 5.75624L16.225 6.40624H16.9125L16.35 6.81249L16.5687 7.46249L16.0062 7.05624L15.4562 7.46249L15.6687 6.81249L15.1062 6.40624H15.7937L16.0125 5.75624ZM18.2 5.75624L18.4125 6.40624H19.1L18.5375 6.81249L18.7562 7.46249L18.1937 7.05624L17.6437 7.46249L17.8562 6.81249L17.2937 6.40624H17.9812L18.2 5.75624ZM20.3875 5.75624L20.6 6.40624H21.2875L20.725 6.81249L20.9437 7.46249L20.3812 7.05624L19.8312 7.46249L20.0437 6.81249L19.4937 6.40624H20.1812L20.3875 5.75624ZM16.0125 3.48124L16.225 4.13124H16.9125L16.35 4.53124L16.575 5.18749L16.0125 4.78124L15.4625 5.18749L15.675 4.53124L15.1125 4.13124H15.8L16.0125 3.48124ZM18.2 3.48124L18.4125 4.13124H19.1L18.5375 4.53124L18.7625 5.18749L18.2 4.78124L17.65 5.18749L17.8625 4.53124L17.3 4.13124H17.9875L18.2 3.48124ZM20.3875 3.48124L20.6 4.13124H21.2875L20.725 4.53124L20.95 5.18749L20.3875 4.78124L19.8375 5.18749L20.05 4.53124L19.5 4.13124H20.1875L20.3875 3.48124Z" fill="#EEEEEE"/>
</g>
</g>
<defs>
<clipPath id="clip0_245_3758">
<rect width="32" height="32" fill="white"/>
</clipPath>
</defs>
</svg>
