<svg width="25" height="25" viewBox="0 0 25 25" fill="none" xmlns="http://www.w3.org/2000/svg">
<path d="M10.0857 4.5C10.0857 3.94772 9.63801 3.5 9.08572 3.5C8.53344 3.5 8.08572 3.94772 8.08572 4.5H9.08572H10.0857ZM8.08572 7.31583C8.08572 7.86811 8.53344 8.31583 9.08572 8.31583C9.63801 8.31583 10.0857 7.86811 10.0857 7.31583H9.08572H8.08572ZM15.5541 7.31583C15.5541 7.86811 16.0018 8.31583 16.5541 8.31583C17.1063 8.31583 17.5541 7.86811 17.5541 7.31583H16.5541H15.5541ZM17.5541 4.50003C17.5541 3.94774 17.1063 3.50003 16.5541 3.50003C16.0018 3.50003 15.5541 3.94774 15.5541 4.50003H16.5541H17.5541ZM5.35157 17.6994L6.35157 17.6994V17.6994L5.35157 17.6994ZM5.35157 8.36398L6.35157 8.36398V8.36398H5.35157ZM14.8316 16.5C15.3838 16.5 15.8316 16.0523 15.8316 15.5C15.8316 14.9477 15.3838 14.5 14.8316 14.5V15.5V16.5ZM10.8316 14.5C10.2793 14.5 9.83156 14.9477 9.83156 15.5C9.83156 16.0523 10.2793 16.5 10.8316 16.5V15.5V14.5ZM9.08572 4.5H8.08572V7.31583H9.08572H10.0857V4.5H9.08572ZM16.5541 5.56336V6.56336H17.4876V5.56336V4.56336H16.5541V5.56336ZM16.5541 5.56336H15.5541V7.31583H16.5541H17.5541V5.56336H16.5541ZM16.5541 5.56336H17.5541V4.50003H16.5541H15.5541V5.56336H16.5541ZM5.35157 17.6994L4.35157 17.6994C4.35156 19.7984 6.05316 21.5 8.15219 21.5V20.5V19.5C7.15773 19.5 6.35157 18.6938 6.35157 17.6994L5.35157 17.6994ZM20.2882 17.6994H19.2882C19.2882 18.6938 18.482 19.5 17.4876 19.5V20.5V21.5C19.5866 21.5 21.2882 19.7984 21.2882 17.6994H20.2882ZM20.2882 8.36398H21.2882C21.2882 6.26496 19.5866 4.56336 17.4876 4.56336V5.56336V6.56336C18.482 6.56336 19.2882 7.36953 19.2882 8.36398H20.2882ZM5.35157 8.36398H6.35157C6.35157 7.36953 7.15774 6.56336 8.15219 6.56336V5.56336V4.56336C6.05317 4.56336 4.35157 6.26496 4.35157 8.36398H5.35157ZM5.35156 10.3331V11.3331H20.2882V10.3331V9.33312H5.35156V10.3331ZM20.2882 8.36398H19.2882V17.6994H20.2882H21.2882V8.36398H20.2882ZM5.35157 17.6994L6.35157 17.6994L6.35157 8.36398L5.35157 8.36398L4.35157 8.36398L4.35157 17.6994L5.35157 17.6994ZM8.15219 5.56336V6.56336H16.5541V5.56336V4.56336H8.15219V5.56336ZM17.4876 20.5V19.5H8.15219V20.5V21.5H17.4876V20.5ZM14.8316 15.5V14.5H10.8316V15.5V16.5H14.8316V15.5Z" fill="#6B4EFF"/>
</svg>
