<svg width="41" height="41" viewBox="0 0 41 41" fill="none" xmlns="http://www.w3.org/2000/svg">
<path d="M33.8336 26.3182C33.8336 29.0796 31.5951 31.3182 28.8336 31.3182H12.167C9.4056 31.3182 7.16702 29.0796 7.16702 26.3182L7.16699 16.4697C7.16699 14.6288 8.65937 13.1364 10.5003 13.1364H12.6558C13.7703 13.1364 14.811 12.5794 15.4293 11.652L15.8744 10.9843C16.4926 10.057 17.5334 9.5 18.6479 9.5H22.3527C23.4672 9.5 24.508 10.057 25.1262 10.9843L25.5714 11.652C26.1896 12.5794 27.2304 13.1364 28.3449 13.1364H30.5003C32.3413 13.1364 33.8336 14.6287 33.8336 16.4697V26.3182Z" stroke="#6B4EFF" stroke-width="3" stroke-linecap="round" stroke-linejoin="round"/>
<path d="M20.5003 26.4697C23.1781 26.4697 25.3488 24.299 25.3488 21.6212C25.3488 18.9435 23.1781 16.7727 20.5003 16.7727C17.8226 16.7727 15.6518 18.9435 15.6518 21.6212C15.6518 24.299 17.8226 26.4697 20.5003 26.4697Z" stroke="#6B4EFF" stroke-width="3" stroke-linecap="round" stroke-linejoin="round"/>
</svg>
