<svg width="16" height="16" viewBox="0 0 16 16" fill="none" xmlns="http://www.w3.org/2000/svg">
<path d="M13.3334 7.51237V8.00304C13.3328 9.15313 12.9603 10.2722 12.2717 11.1933C11.5831 12.1145 10.6152 12.7884 9.51227 13.1145C8.40938 13.4405 7.23062 13.4014 6.1518 13.0028C5.07298 12.6042 4.1519 11.8676 3.52593 10.9028C2.89996 9.93799 2.60264 8.79667 2.67831 7.64907C2.75398 6.50148 3.19859 5.40908 3.94583 4.53481C4.69307 3.66055 5.7029 3.05125 6.82471 2.79779C7.94653 2.54433 9.12022 2.66029 10.1707 3.12838M6.00008 6.88888L7.7509 8.6397C8.01125 8.90005 8.43336 8.90005 8.69371 8.6397L12.6667 4.66666" stroke="white" stroke-width="1.5" stroke-linecap="round" stroke-linejoin="round"/>
</svg>
