<svg width="24" height="24" viewBox="0 0 24 24" fill="none" xmlns="http://www.w3.org/2000/svg">
<path d="M4.00001 6C4.00001 4.89544 4.89544 4.00001 6.00001 4.00001H8.00001C9.10458 4.00001 10 4.89544 10 6.00001V8.00001C10 9.10458 9.10458 10 8.00001 10H6C4.89543 10 4 9.10458 4 8L4.00001 6Z" stroke="#0D0D0D" stroke-width="1.5"/>
<path d="M14 6.00001C14 4.89544 14.8954 4.00001 16 4.00001L18 4C19.1046 4 20 4.89542 20 5.99999L20 8C20 9.10458 19.1046 10 18 10H16C14.8954 10 14 9.10458 14 8.00001V6.00001Z" stroke="#0D0D0D" stroke-width="1.5"/>
<path d="M4.00003 16C4.00003 14.8954 4.89546 14 6.00003 14H8.00001C9.10458 14 10 14.8954 10 16V18C10 19.1046 9.10458 20 8.00001 20H6.00003C4.89546 20 4.00003 19.1046 4.00003 18V16Z" stroke="#0D0D0D" stroke-width="1.5"/>
<path d="M14 16C14 14.8954 14.8954 14 16 14H18C19.1046 14 20 14.8954 20 16L20 18C20 19.1046 19.1046 20 18 20H16C14.8954 20 14 19.1046 14 18V16Z" stroke="#0D0D0D" stroke-width="1.5"/>
</svg>
