<svg width="21" height="20" viewBox="0 0 21 20" fill="none" xmlns="http://www.w3.org/2000/svg">
<g clip-path="url(#clip0_1444_10530)">
<path d="M3.70833 10.8333C4.625 10.8333 5.375 10.0833 5.375 9.16667C5.375 8.25 4.625 7.5 3.70833 7.5C2.79167 7.5 2.04167 8.25 2.04167 9.16667C2.04167 10.0833 2.79167 10.8333 3.70833 10.8333ZM4.65 11.75C4.34167 11.7 4.03333 11.6667 3.70833 11.6667C2.88333 11.6667 2.1 11.8417 1.39167 12.15C0.775 12.4167 0.375 13.0167 0.375 13.6917V15H4.125V13.6583C4.125 12.9667 4.31667 12.3167 4.65 11.75ZM17.0417 10.8333C17.9583 10.8333 18.7083 10.0833 18.7083 9.16667C18.7083 8.25 17.9583 7.5 17.0417 7.5C16.125 7.5 15.375 8.25 15.375 9.16667C15.375 10.0833 16.125 10.8333 17.0417 10.8333ZM20.375 13.6917C20.375 13.0167 19.975 12.4167 19.3583 12.15C18.65 11.8417 17.8667 11.6667 17.0417 11.6667C16.7167 11.6667 16.4083 11.7 16.1 11.75C16.4333 12.3167 16.625 12.9667 16.625 13.6583V15H20.375V13.6917ZM13.9083 11.375C12.9333 10.9417 11.7333 10.625 10.375 10.625C9.01667 10.625 7.81667 10.95 6.84167 11.375C5.94167 11.775 5.375 12.675 5.375 13.6583V15H15.375V13.6583C15.375 12.675 14.8083 11.775 13.9083 11.375ZM7.1 13.3333C7.175 13.1417 7.20833 13.0083 7.85833 12.7583C8.66667 12.4417 9.51667 12.2917 10.375 12.2917C11.2333 12.2917 12.0833 12.4417 12.8917 12.7583C13.5333 13.0083 13.5667 13.1417 13.65 13.3333H7.1ZM10.375 6.66667C10.8333 6.66667 11.2083 7.04167 11.2083 7.5C11.2083 7.95833 10.8333 8.33333 10.375 8.33333C9.91667 8.33333 9.54167 7.95833 9.54167 7.5C9.54167 7.04167 9.91667 6.66667 10.375 6.66667ZM10.375 5C8.99167 5 7.875 6.11667 7.875 7.5C7.875 8.88333 8.99167 10 10.375 10C11.7583 10 12.875 8.88333 12.875 7.5C12.875 6.11667 11.7583 5 10.375 5Z" fill="#9E9EA0"/>
</g>
<defs>
<clipPath id="clip0_1444_10530">
<rect width="20" height="20" fill="white" transform="translate(0.375)"/>
</clipPath>
</defs>
</svg>
