<svg width="25" height="24" viewBox="0 0 25 24" fill="none" xmlns="http://www.w3.org/2000/svg">
<path d="M19.2663 7.23375C18.8753 6.84262 18.4111 6.53234 17.9002 6.32065C17.3893 6.10896 16.8417 6 16.2887 6C15.7357 6 15.1881 6.10896 14.6772 6.32065C14.1663 6.53234 13.7021 6.84262 13.3112 7.23375L12.8082 7.73674C12.6379 7.90705 12.3617 7.90705 12.1914 7.73674L11.6884 7.23375C10.8987 6.44406 9.82768 6.00041 8.71089 6.00041C7.59409 6.00041 6.52303 6.44406 5.73334 7.23375C4.94365 8.02344 4.5 9.0945 4.5 10.2113C4.5 11.3281 4.94365 12.3991 5.73334 13.1888L10.6496 18.1051C11.6714 19.1269 13.3282 19.1269 14.35 18.1051L19.2663 13.1888C19.6574 12.7979 19.9677 12.3337 20.1794 11.8228C20.391 11.3119 20.5 10.7643 20.5 10.2113C20.5 9.65828 20.391 9.11068 20.1794 8.59978C19.9677 8.08888 19.6574 7.6247 19.2663 7.23375Z" stroke="#131214" stroke-width="1.25" stroke-linecap="round" stroke-linejoin="round"/>
</svg>
