<svg width="24" height="24" viewBox="0 0 24 24" fill="none" xmlns="http://www.w3.org/2000/svg">
<path d="M12 7V11" stroke="#6C52FF" stroke-width="1.5" stroke-linecap="round" stroke-linejoin="round"/>
<path d="M14 21V18C14 17.4696 13.7893 16.9609 13.4142 16.5858C13.0391 16.2107 12.5304 16 12 16C11.4696 16 10.9609 16.2107 10.5858 16.5858C10.2107 16.9609 10 17.4696 10 18V21" stroke="#6C52FF" stroke-width="1.5" stroke-linecap="round" stroke-linejoin="round"/>
<path d="M14 9H10" stroke="#6C52FF" stroke-width="1.5" stroke-linecap="round" stroke-linejoin="round"/>
<path d="M18 11H20C20.5304 11 21.0391 11.2107 21.4142 11.5858C21.7893 11.9609 22 12.4696 22 13V19C22 19.5304 21.7893 20.0391 21.4142 20.4142C21.0391 20.7893 20.5304 21 20 21H4C3.46957 21 2.96086 20.7893 2.58579 20.4142C2.21071 20.0391 2 19.5304 2 19V10C2 9.46957 2.21071 8.96086 2.58579 8.58579C2.96086 8.21071 3.46957 8 4 8H6" stroke="#6C52FF" stroke-width="1.5" stroke-linecap="round" stroke-linejoin="round"/>
<path d="M18 21V5C18 4.46957 17.7893 3.96086 17.4142 3.58579C17.0391 3.21071 16.5304 3 16 3H8C7.46957 3 6.96086 3.21071 6.58579 3.58579C6.21071 3.96086 6 4.46957 6 5V21" stroke="#6C52FF" stroke-width="1.5" stroke-linecap="round" stroke-linejoin="round"/>
</svg>
