<svg width="24" height="25" viewBox="0 0 24 25" fill="none" xmlns="http://www.w3.org/2000/svg">
<path d="M10 22.5001V15.9301" stroke="#6C52FF" stroke-width="1.5" stroke-linecap="round" stroke-linejoin="round"/>
<path d="M12 11.5H12.01" stroke="#6C52FF" stroke-width="1.5" stroke-linecap="round" stroke-linejoin="round"/>
<path d="M12 7.5H12.01" stroke="#6C52FF" stroke-width="1.5" stroke-linecap="round" stroke-linejoin="round"/>
<path d="M14 15.9301V22.5001" stroke="#6C52FF" stroke-width="1.5" stroke-linecap="round" stroke-linejoin="round"/>
<path d="M15 16.5C14.1345 15.8509 13.0819 15.5 12 15.5C10.9181 15.5 9.86548 15.8509 9 16.5" stroke="#6C52FF" stroke-width="1.5" stroke-linecap="round" stroke-linejoin="round"/>
<path d="M16 11.5H16.01" stroke="#6C52FF" stroke-width="1.5" stroke-linecap="round" stroke-linejoin="round"/>
<path d="M16 7.5H16.01" stroke="#6C52FF" stroke-width="1.5" stroke-linecap="round" stroke-linejoin="round"/>
<path d="M8 11.5H8.01" stroke="#6C52FF" stroke-width="1.5" stroke-linecap="round" stroke-linejoin="round"/>
<path d="M8 7.5H8.01" stroke="#6C52FF" stroke-width="1.5" stroke-linecap="round" stroke-linejoin="round"/>
<path d="M18 2.5H6C4.89543 2.5 4 3.39543 4 4.5V20.5C4 21.6046 4.89543 22.5 6 22.5H18C19.1046 22.5 20 21.6046 20 20.5V4.5C20 3.39543 19.1046 2.5 18 2.5Z" stroke="#6C52FF" stroke-width="1.5" stroke-linecap="round" stroke-linejoin="round"/>
</svg>
