<svg width="37" height="36" viewBox="0 0 37 36" fill="none" xmlns="http://www.w3.org/2000/svg">
<g clip-path="url(#clip0_17047_10963)">
<path d="M0.658203 18.2191C1.13208 17.8176 1.6266 17.5034 2.07613 17.1352C3.70645 15.8 5.31404 14.4374 6.94474 13.1026C8.6108 11.7388 10.2985 10.4011 11.9682 9.04163C13.2634 7.98707 14.6021 6.97636 15.821 5.84023C17.9636 3.84322 19.7243 4.13301 21.7605 5.95444C23.0229 7.08373 24.3653 8.12543 25.6776 9.19942C25.7664 9.27214 25.9046 9.28565 26.0793 9.34785C26.0793 8.02083 26.1078 6.72757 26.0685 5.43634C26.0452 4.67201 26.4969 4.42199 27.1133 4.39461C28.1113 4.35029 29.1142 4.3499 30.1122 4.39469C30.7356 4.42267 31.152 4.69747 31.1432 5.45033C31.1135 8.00648 31.123 10.5633 31.146 13.1195C31.1482 13.3689 31.2795 13.6951 31.4655 13.8527C33.1519 15.2819 34.8638 16.6815 36.6132 18.0449C36.6582 18.2683 36.6582 18.5367 36.6582 18.8721C36.2382 19.3304 35.7415 19.6672 35.4123 20.123C34.3795 21.5526 34.1158 21.4236 32.8072 20.3546C30.264 18.2772 27.7461 16.1695 25.2055 14.089C23.2249 12.467 21.2364 10.8537 19.2184 9.27812C19.0151 9.11941 18.4828 9.11314 18.2747 9.26584C17.141 10.0976 16.0591 10.999 14.9632 11.881C12.9886 13.4702 11.0096 15.0541 9.04587 16.6564C7.41536 17.9868 5.79311 19.3277 4.18946 20.6897C3.46429 21.3056 3.0224 21.3123 2.40821 20.6033C1.85616 19.9659 1.30296 19.3296 0.704234 18.7377C0.658203 18.6157 0.658203 18.4487 0.658203 18.2191Z" fill="#6B4EFF"/>
<path d="M19.3145 11.6811C20.362 12.5148 21.3727 13.2973 22.3719 14.0941C24.2741 15.6108 26.1721 17.1328 28.067 18.6586C28.7477 19.2066 29.4048 19.7838 30.0911 20.3246C30.5382 20.6769 30.6784 21.0925 30.6724 21.6641C30.6408 24.6623 30.6588 27.661 30.6568 30.6596C30.6563 31.4908 30.2157 31.9287 29.3794 31.9296C27.2226 31.932 25.0657 31.9333 22.9088 31.9291C21.9426 31.9273 21.5029 31.4846 21.5008 30.5165C21.497 28.7695 21.5008 27.0226 21.4993 25.2756C21.4985 24.3605 21.2338 24.1055 20.2889 24.1046C19.1842 24.1036 18.0794 24.0965 16.9747 24.1069C16.1328 24.1149 15.8166 24.4402 15.816 25.267C15.8145 27.014 15.8048 28.7611 15.8198 30.5079C15.8278 31.4402 15.3563 31.9897 14.408 31.9546C12.3067 31.8769 10.2004 31.9325 8.09614 31.9295C7.12098 31.9281 6.81687 31.6199 6.81623 30.6351C6.81426 27.5844 6.83254 24.5335 6.79894 21.4831C6.79327 20.9678 6.99725 20.6593 7.35273 20.3713C8.78631 19.2097 10.2169 18.0445 11.6522 16.885C13.6054 15.3072 15.5636 13.7355 17.5157 12.1564C17.9244 11.8257 18.1979 11.2504 18.875 11.4315C19.0158 11.4692 19.1404 11.5666 19.3145 11.6811Z" fill="#6B4EFF"/>
</g>
<defs>
<clipPath id="clip0_17047_10963">
<rect width="36" height="36" fill="white" transform="translate(0.5)"/>
</clipPath>
</defs>
</svg>
