<svg width="25" height="25" viewBox="0 0 25 25" fill="none" xmlns="http://www.w3.org/2000/svg">
<g clip-path="url(#clip0_17368_12626)">
<path d="M0.271484 12.6461C0.587401 12.3784 0.917084 12.1689 1.21677 11.9235C2.30365 11.0333 3.37538 10.1249 4.46251 9.23507C5.57322 8.32589 6.69833 7.43403 7.81146 6.52775C8.67496 5.82471 9.56743 5.1509 10.38 4.39348C11.8084 3.06214 12.9822 3.25533 14.3397 4.46962C15.1813 5.22248 16.0762 5.91695 16.9511 6.63294C17.0103 6.68142 17.1024 6.69043 17.2189 6.73189C17.2189 5.84722 17.2379 4.98504 17.2117 4.12422C17.1961 3.61467 17.4973 3.44799 17.9082 3.42974C18.5735 3.40019 19.2422 3.39993 19.9075 3.42979C20.3231 3.44844 20.6007 3.63164 20.5948 4.13355C20.575 5.83765 20.5813 7.54217 20.5967 9.24636C20.5982 9.41261 20.6857 9.63007 20.8097 9.73516C21.9339 10.6879 23.0752 11.621 24.2415 12.5299C24.2715 12.6789 24.2715 12.8578 24.2715 13.0814C23.9915 13.3869 23.6603 13.6115 23.4409 13.9153C22.7523 14.8684 22.5766 14.7824 21.7042 14.0698C20.0087 12.6848 18.3301 11.2797 16.6364 9.89265C15.3159 8.81132 13.9903 7.73581 12.6449 6.68541C12.5094 6.5796 12.1545 6.57542 12.0158 6.67722C11.26 7.23175 10.5388 7.83266 9.80817 8.42067C8.49177 9.48013 7.17241 10.536 5.86326 11.6043C4.77626 12.4912 3.69475 13.3851 2.62566 14.2931C2.14221 14.7037 1.84761 14.7082 1.43815 14.2355C1.07012 13.8106 0.70132 13.3864 0.302172 12.9918C0.271484 12.9104 0.271484 12.7991 0.271484 12.6461Z" fill="#6B4EFF"/>
<path d="M12.709 8.28743C13.4074 8.84317 14.0811 9.3649 14.7473 9.89604C16.0154 10.9072 17.2807 11.9219 18.544 12.939C18.9978 13.3044 19.4359 13.6892 19.8934 14.0497C20.1915 14.2846 20.285 14.5617 20.281 14.9427C20.2599 16.9415 20.2719 18.9407 20.2706 20.9397C20.2702 21.4938 19.9765 21.7858 19.419 21.7864C17.9811 21.788 16.5432 21.7889 15.1052 21.7861C14.4611 21.7849 14.1679 21.4898 14.1665 20.8443C14.164 19.6797 14.1665 18.515 14.1655 17.3504C14.165 16.7403 13.9885 16.5703 13.3586 16.5697C12.6221 16.569 11.8856 16.5643 11.1492 16.5713C10.5879 16.5766 10.3771 16.7935 10.3767 17.3447C10.3757 18.5093 10.3692 19.6741 10.3792 20.8386C10.3846 21.4602 10.0702 21.8265 9.43801 21.8031C8.03712 21.7513 6.63294 21.7884 5.23011 21.7863C4.58 21.7854 4.37726 21.5799 4.37684 20.9234C4.37553 18.8896 4.38771 16.8556 4.36531 14.8221C4.36153 14.4785 4.49752 14.2729 4.73451 14.0809C5.69022 13.3065 6.64393 12.5297 7.60081 11.7567C8.90295 10.7048 10.2084 9.65703 11.5098 8.60424C11.7823 8.38383 11.9646 8.00029 12.416 8.12101C12.5099 8.14612 12.5929 8.21108 12.709 8.28743Z" fill="#6B4EFF"/>
</g>
<defs>
<clipPath id="clip0_17368_12626">
<rect width="24" height="24" fill="white" transform="translate(0.166016 0.5)"/>
</clipPath>
</defs>
</svg>
