<svg width="37" height="36" viewBox="0 0 37 36" fill="none" xmlns="http://www.w3.org/2000/svg">
<path d="M18.25 12L27.25 7.5L18.25 3V18" stroke="#0D0D0D" stroke-width="1.5" stroke-linecap="round" stroke-linejoin="round"/>
<path d="M12.2497 17.985L3.99968 22.695C3.76883 22.8258 3.57682 23.0155 3.44323 23.2448C3.30964 23.4741 3.23926 23.7347 3.23926 24C3.23926 24.2653 3.30964 24.5259 3.44323 24.7552C3.57682 24.9845 3.76883 25.1742 3.99968 25.305L16.7497 32.595C17.2057 32.8583 17.7231 32.9969 18.2497 32.9969C18.7763 32.9969 19.2936 32.8583 19.7497 32.595L32.4997 25.305C32.7305 25.1742 32.9225 24.9845 33.0561 24.7552C33.1897 24.5259 33.2601 24.2653 33.2601 24C33.2601 23.7347 33.1897 23.4741 33.0561 23.2448C32.9225 23.0155 32.7305 22.8258 32.4997 22.695L24.2497 18" stroke="#0D0D0D" stroke-width="1.5" stroke-linecap="round" stroke-linejoin="round"/>
<path d="M9.98535 19.275L26.5154 28.725" stroke="#0D0D0D" stroke-width="1.5" stroke-linecap="round" stroke-linejoin="round"/>
<path d="M26.515 19.275L10 28.725" stroke="#0D0D0D" stroke-width="1.5" stroke-linecap="round" stroke-linejoin="round"/>
</svg>
