<svg width="20" height="20" viewBox="0 0 20 20" fill="none" xmlns="http://www.w3.org/2000/svg">
<path d="M9.16732 11.25C9.16732 11.25 9.31502 11.3672 9.73686 11.5976C10.1587 11.8281 10.6252 11.9652 11.1046 11.9995C11.5841 12.0338 12.0654 11.9647 12.5157 11.7967C12.9661 11.6287 13.3751 11.3657 13.7149 11.0258L15.7263 9.01443C16.3369 8.38219 16.6748 7.5354 16.6672 6.65645C16.6596 5.7775 16.307 4.93672 15.6855 4.31518C15.0639 3.69365 14.2231 3.34109 13.3442 3.33345C12.4652 3.32582 11.6185 3.66371 10.9862 4.27435L9.83304 5.42082M10.834 8.74999C10.834 8.74999 10.6863 8.61941 10.2644 8.38894C9.8426 8.15847 9.37612 8.02142 8.89665 7.98708C8.41718 7.95274 7.93594 8.02192 7.48556 8.18992C7.03518 8.35793 6.6262 8.62083 6.28635 8.9608L4.275 10.9721C3.66436 11.6044 3.32647 12.4512 3.33411 13.3301C3.34175 14.2091 3.6943 15.0499 4.31584 15.6714C4.93737 16.2929 5.77816 16.6455 6.65711 16.6531C7.53606 16.6608 8.38285 16.3229 9.01509 15.7122L10.1616 14.5658" stroke="#4D4D4D" stroke-width="1.5" stroke-linecap="round" stroke-linejoin="round"/>
</svg>
