<svg width="21" height="20" viewBox="0 0 21 20" fill="none" xmlns="http://www.w3.org/2000/svg">
<path d="M6.45866 7.08325H2.29199V5.41659H6.45866V7.08325ZM6.45866 9.58325H2.29199V11.2499H6.45866V9.58325ZM17.7837 15.4166L14.592 12.2249C13.9253 12.6583 13.142 12.9166 12.292 12.9166C9.99199 12.9166 8.12533 11.0499 8.12533 8.74992C8.12533 6.44992 9.99199 4.58325 12.292 4.58325C14.592 4.58325 16.4587 6.44992 16.4587 8.74992C16.4587 9.59992 16.2003 10.3833 15.767 11.0416L18.9587 14.2416L17.7837 15.4166ZM14.792 8.74992C14.792 7.37492 13.667 6.24992 12.292 6.24992C10.917 6.24992 9.79199 7.37492 9.79199 8.74992C9.79199 10.1249 10.917 11.2499 12.292 11.2499C13.667 11.2499 14.792 10.1249 14.792 8.74992ZM2.29199 15.4166H10.6253V13.7499H2.29199V15.4166Z" fill="#9E9EA0"/>
</svg>
