<svg width="14" height="15" viewBox="0 0 14 15" fill="none" xmlns="http://www.w3.org/2000/svg">
<path d="M10.9255 6.80868C10.9255 8.91154 9.08666 10.8101 7.91024 11.8095C7.34968 12.2858 6.55064 12.2858 5.99007 11.8095C4.81366 10.8101 2.97485 8.91154 2.97485 6.80868C2.97485 5.75436 3.39368 4.74323 4.13919 3.99771C4.88471 3.2522 5.89584 2.83337 6.95016 2.83337C8.00448 2.83337 9.01561 3.2522 9.76113 3.99771C10.5066 4.74323 10.9255 5.75436 10.9255 6.80868Z" stroke="#4D4D4D" stroke-linecap="round" stroke-linejoin="round"/>
<path d="M6.95016 8.13378C7.68199 8.13378 8.27526 7.54052 8.27526 6.80868C8.27526 6.07685 7.68199 5.48358 6.95016 5.48358C6.21833 5.48358 5.62506 6.07685 5.62506 6.80868C5.62506 7.54052 6.21833 8.13378 6.95016 8.13378Z" stroke="#4D4D4D" stroke-linecap="round" stroke-linejoin="round"/>
</svg>
