<svg width="21" height="20" viewBox="0 0 21 20" fill="none" xmlns="http://www.w3.org/2000/svg">
<path d="M7.75065 10.1667H7.75732M10.2573 10.1667H10.264M12.764 10.1667H12.7707M16.9173 10C16.92 11.0352 16.6781 12.0564 16.2114 12.9804C15.658 14.0877 14.8073 15.019 13.7545 15.67C12.7017 16.3211 11.4885 16.6662 10.2507 16.6667C9.39859 16.6689 8.55602 16.5054 7.76932 16.1873C7.43922 16.0538 7.08086 15.9929 6.72979 16.0524L5.02501 16.2339C4.4442 16.2958 3.95445 15.8059 4.01643 15.2251L4.19833 13.5209C4.2578 13.1698 4.19691 12.8115 4.06341 12.4814C3.74525 11.6947 3.58179 10.8521 3.58401 10C3.58449 8.76221 3.92958 7.54895 4.58065 6.49617C5.23171 5.44339 6.16302 4.59266 7.27027 4.03928C8.19428 3.57256 9.21546 3.3307 10.2507 3.3334H10.6428C12.2776 3.42359 13.8217 4.1136 14.9794 5.27132C16.1371 6.42904 16.8271 7.97311 16.9173 9.60788V10Z" stroke="#131214" stroke-width="1.5" stroke-linecap="round" stroke-linejoin="round"/>
</svg>
