<svg width="20" height="20" viewBox="0 0 20 20" fill="none" xmlns="http://www.w3.org/2000/svg">
<path d="M11.0513 16.958C10.8627 17.3506 10.4622 17.6249 10.0005 17.625C9.53862 17.625 9.13727 17.3508 8.94873 16.958H11.0513ZM10.0005 2.375C10.4159 2.37517 10.7505 2.70958 10.7505 3.125V4.08691L11.1353 4.17773C13.2494 4.67876 14.5004 6.57381 14.5005 8.95801L14.5005 13.332L16.1665 14.998V15.125L3.8335 15.125V14.999L5.50049 13.332L5.50049 8.95801C5.5006 6.5668 6.75831 4.6788 8.86572 4.17773L9.25049 4.08691V3.125C9.25049 2.70948 9.58496 2.375 10.0005 2.375ZM10.0005 4.70801C8.81599 4.70801 7.84239 5.1937 7.17334 5.98535C6.51116 6.76891 6.16657 7.8267 6.1665 8.95801L6.1665 14.458L13.8335 14.458L13.8335 8.95801C13.8334 7.8267 13.4888 6.76891 12.8267 5.98535C12.1577 5.19387 11.1848 4.7081 10.0005 4.70801Z" fill="black" stroke="#121116"/>
</svg>
