<svg width="21" height="21" viewBox="0 0 21 21" fill="none" xmlns="http://www.w3.org/2000/svg">
<path d="M13.8605 4.4007C13.8605 4.4007 14.2539 4.07814 14.4889 3.98079C14.7239 3.88344 14.9758 3.83333 15.2302 3.83333C15.4846 3.83333 15.7365 3.88344 15.9715 3.98079C16.2065 4.07814 16.4201 4.22082 16.6 4.4007C16.7798 4.58058 16.9225 4.79412 17.0199 5.02914C17.1172 5.26417 17.1673 5.51606 17.1673 5.77045C17.1673 6.02483 17.1172 6.27672 17.0199 6.51175C16.9225 6.74677 16.6 7.14019 16.6 7.14019C16.6 7.14019 10.3773 15.1667 7.35418 16.386C6.60818 16.6868 5.60095 16.9562 4.81573 17.1435C4.23054 17.2831 3.71754 16.7701 3.85715 16.1849C4.04449 15.3997 4.31382 14.3925 4.61469 13.6465C5.83398 10.6233 13.8605 4.4007 13.8605 4.4007Z" stroke="#6B4EFF" stroke-width="1.5" stroke-linecap="round" stroke-linejoin="round"/>
</svg>
