<svg width="37" height="36" viewBox="0 0 37 36" fill="none" xmlns="http://www.w3.org/2000/svg">
<path d="M9.75 33V6C9.75 5.20435 10.0661 4.44129 10.6287 3.87868C11.1913 3.31607 11.9544 3 12.75 3H24.75C25.5456 3 26.3087 3.31607 26.8713 3.87868C27.4339 4.44129 27.75 5.20435 27.75 6V33H9.75Z" stroke="#0D0D0D" stroke-width="1.5" stroke-linecap="round" stroke-linejoin="round"/>
<path d="M9.75 18H6.75C5.95435 18 5.19129 18.3161 4.62868 18.8787C4.06607 19.4413 3.75 20.2044 3.75 21V30C3.75 30.7956 4.06607 31.5587 4.62868 32.1213C5.19129 32.6839 5.95435 33 6.75 33H9.75" stroke="#0D0D0D" stroke-width="1.5" stroke-linecap="round" stroke-linejoin="round"/>
<path d="M27.75 13.5H30.75C31.5456 13.5 32.3087 13.8161 32.8713 14.3787C33.4339 14.9413 33.75 15.7044 33.75 16.5V30C33.75 30.7956 33.4339 31.5587 32.8713 32.1213C32.3087 32.6839 31.5456 33 30.75 33H27.75" stroke="#0D0D0D" stroke-width="1.5" stroke-linecap="round" stroke-linejoin="round"/>
<path d="M15.75 9H21.75" stroke="#0D0D0D" stroke-width="1.5" stroke-linecap="round" stroke-linejoin="round"/>
<path d="M15.75 15H21.75" stroke="#0D0D0D" stroke-width="1.5" stroke-linecap="round" stroke-linejoin="round"/>
<path d="M15.75 21H21.75" stroke="#0D0D0D" stroke-width="1.5" stroke-linecap="round" stroke-linejoin="round"/>
<path d="M15.75 27H21.75" stroke="#0D0D0D" stroke-width="1.5" stroke-linecap="round" stroke-linejoin="round"/>
</svg>
