<svg width="21" height="20" viewBox="0 0 21 20" fill="none" xmlns="http://www.w3.org/2000/svg">
<path d="M7.50857 13.0943C4.63095 10.4608 3.87482 7.7333 3.7185 6.02662C3.62318 4.986 4.44181 4.18803 5.47427 4.02679L6.66376 3.84102C7.83483 3.65813 8.9395 4.43822 9.15888 5.603L9.3488 6.61139C9.43511 7.06966 9.18133 7.52409 8.74589 7.69099C8.24828 7.88172 8.00449 8.43879 8.25863 8.9072C8.56278 9.46777 9.03024 10.1943 9.64647 10.7582C10.2627 11.3222 11.0277 11.7236 11.613 11.977C12.102 12.1887 12.6354 11.8966 12.7813 11.3841C12.9091 10.9356 13.3393 10.6427 13.8034 10.6881L14.8246 10.7881C16.0042 10.9037 16.8789 11.9351 16.8003 13.1177L16.7204 14.319C16.6511 15.3616 15.9286 16.2476 14.8837 16.2447C13.1699 16.2398 10.3862 15.7278 7.50857 13.0943Z" stroke="#0D0D0D" stroke-width="1.5"/>
</svg>
