<svg width="24" height="24" viewBox="0 0 24 24" fill="none" xmlns="http://www.w3.org/2000/svg">
<path d="M8.472 13.208L13.936 16.392M13.928 7.608L8.472 10.792M18.4 6.4C18.4 7.72548 17.3255 8.8 16 8.8C14.6745 8.8 13.6 7.72548 13.6 6.4C13.6 5.07452 14.6745 4 16 4C17.3255 4 18.4 5.07452 18.4 6.4ZM8.8 12C8.8 13.3255 7.72548 14.4 6.4 14.4C5.07452 14.4 4 13.3255 4 12C4 10.6745 5.07452 9.6 6.4 9.6C7.72548 9.6 8.8 10.6745 8.8 12ZM18.4 17.6C18.4 18.9255 17.3255 20 16 20C14.6745 20 13.6 18.9255 13.6 17.6C13.6 16.2745 14.6745 15.2 16 15.2C17.3255 15.2 18.4 16.2745 18.4 17.6Z" stroke="#131214" stroke-width="1.5" stroke-linecap="round" stroke-linejoin="round"/>
</svg>
