<svg width="20" height="20" viewBox="0 0 20 20" fill="none" xmlns="http://www.w3.org/2000/svg">
<path d="M10 11.6667V15" stroke="#4D4D4D" stroke-width="1.5" stroke-linecap="round" stroke-linejoin="round"/>
<path d="M11.8107 1.66666C12.2526 1.66675 12.6765 1.84241 12.989 2.15499L16.179 5.34499C16.4916 5.65748 16.6672 6.08133 16.6673 6.52332V16.6667C16.6673 17.1087 16.4917 17.5326 16.1792 17.8452C15.8666 18.1577 15.4427 18.3333 15.0007 18.3333H5.00065C4.55862 18.3333 4.1347 18.1577 3.82214 17.8452C3.50958 17.5326 3.33398 17.1087 3.33398 16.6667V3.33332C3.33398 2.8913 3.50958 2.46737 3.82214 2.15481C4.1347 1.84225 4.55862 1.66666 5.00065 1.66666H11.8107Z" stroke="#4D4D4D" stroke-width="1.5" stroke-linecap="round" stroke-linejoin="round"/>
<path d="M6.66602 11.6667H13.3327" stroke="#4D4D4D" stroke-width="1.5" stroke-linecap="round" stroke-linejoin="round"/>
<path d="M12.4993 8.33334H7.49935C7.03911 8.33334 6.66602 8.70644 6.66602 9.16668V14.1667C6.66602 14.6269 7.03911 15 7.49935 15H12.4993C12.9596 15 13.3327 14.6269 13.3327 14.1667V9.16668C13.3327 8.70644 12.9596 8.33334 12.4993 8.33334Z" stroke="#4D4D4D" stroke-width="1.5" stroke-linecap="round" stroke-linejoin="round"/>
</svg>
