<svg width="24" height="24" viewBox="0 0 24 24" fill="none" xmlns="http://www.w3.org/2000/svg">
<path d="M11.5424 4.58448C11.7296 4.20524 12.2704 4.20524 12.4576 4.58448L14.4157 8.55135C14.5642 8.85227 14.8512 9.06094 15.1833 9.10948L19.5629 9.74964C19.9814 9.81079 20.1481 10.3251 19.8452 10.6201L16.6773 13.7057C16.4366 13.9401 16.3267 14.2781 16.3835 14.6093L17.131 18.9678C17.2025 19.3847 16.7649 19.7026 16.3905 19.5057L12.475 17.4466C12.1777 17.2902 11.8223 17.2902 11.525 17.4466L7.60946 19.5057C7.23509 19.7026 6.79749 19.3847 6.86899 18.9678L7.61652 14.6093C7.67332 14.2781 7.56344 13.9401 7.32271 13.7057L4.1548 10.6201C3.85189 10.3251 4.01865 9.81079 4.43705 9.74964L8.81675 9.10948C9.14881 9.06094 9.43578 8.85227 9.58432 8.55135L11.5424 4.58448Z" stroke="#4D4D4D" stroke-width="1.5" stroke-linecap="round" stroke-linejoin="round"/>
</svg>
