<svg width="25" height="24" viewBox="0 0 25 24" fill="none" xmlns="http://www.w3.org/2000/svg">
<path d="M10.5016 11.5L10.946 16.1667M14.5016 11.5L14.0571 16.1667M4.85156 7.92453H6.66283M6.66283 7.92453C11.3786 7.92453 20.1353 7.92453 20.1353 7.92453M6.66283 7.92453L7.30765 17.2079C7.41686 18.7803 8.72426 20 10.3004 20H14.7249C16.2919 20 17.595 18.7939 17.7159 17.2316L18.4365 7.92453C18.4365 7.92453 10.7891 7.92453 6.66283 7.92453ZM9.37986 7.92453V6C9.37986 4.89543 10.2753 4 11.3799 4H13.7195C14.8241 4 15.7195 4.89543 15.7195 6V7.92453" stroke="#FF5247" stroke-width="1.5" stroke-linecap="round" stroke-linejoin="round"/>
</svg>
