<svg width="20" height="20" viewBox="0 0 20 20" fill="none" xmlns="http://www.w3.org/2000/svg">
<path d="M6.83269 9.33334V6.66668C6.83269 5.78262 7.18388 4.93478 7.809 4.30965C8.43412 3.68453 9.28197 3.33334 10.166 3.33334C11.0501 3.33334 11.8979 3.68453 12.523 4.30965C13.1482 4.93478 13.4994 5.78262 13.4994 6.66668V6.7448M6.66601 16.6667H13.666C15.0467 16.6667 16.166 15.5474 16.166 14.1667V11.8333C16.166 10.4526 15.0467 9.33334 13.666 9.33334H6.66602C5.28531 9.33334 4.16603 10.4526 4.16602 11.8333L4.16602 14.1667C4.16601 15.5474 5.2853 16.6667 6.66601 16.6667Z" stroke="#4D4D4D" stroke-width="1.5" stroke-linecap="round" stroke-linejoin="round"/>
</svg>
