<svg width="36" height="36" viewBox="0 0 36 36" fill="none" xmlns="http://www.w3.org/2000/svg">
<path d="M26.1636 30C26.8862 30 27.5526 29.6103 27.9068 28.9805L28.2212 28.4215C28.5958 27.7556 28.5541 26.9341 28.015 26.3926C26.6153 24.9865 23.3794 22.5 18 22.5C12.5974 22.5 9.52989 25.008 8.23668 26.4107C7.74233 26.947 7.72215 27.7283 8.07971 28.3639L8.42654 28.9805" stroke="#0A0A0A" stroke-width="3" stroke-linecap="round" stroke-linejoin="round"/>
<path d="M18.1667 16.6667C21.1122 16.6667 23.5 14.2789 23.5 11.3333C23.5 8.38781 21.1122 6 18.1667 6C15.2211 6 12.8333 8.38781 12.8333 11.3333C12.8333 14.2789 15.2211 16.6667 18.1667 16.6667Z" stroke="#0A0A0A" stroke-width="3" stroke-linecap="round" stroke-linejoin="round"/>
</svg>
