<svg width="36" height="36" viewBox="0 0 36 36" fill="none" xmlns="http://www.w3.org/2000/svg">
<path d="M29.489 29.25C29.489 29.25 29.9986 28.1221 29.9986 27C29.9986 25.2605 29.2485 24 27.7485 23.25M23.9985 16.334C25.7645 15.5624 26.9986 13.8003 26.9986 11.75C26.9986 9.69967 25.7645 7.93758 23.9985 7.16603M20.5486 11.75C20.5486 14.5114 18.31 16.75 15.5486 16.75C12.7871 16.75 10.5486 14.5114 10.5486 11.75C10.5486 8.98858 12.7871 6.75 15.5486 6.75C18.31 6.75 20.5486 8.98858 20.5486 11.75ZM15.3923 22.2188C20.1705 22.2188 23.1447 24.3113 24.5602 25.6524C25.2181 26.2757 25.2668 27.2509 24.8225 28.0408C24.4023 28.7877 23.6119 29.25 22.7549 29.25H8.38122C7.5001 29.25 6.68748 28.7747 6.2555 28.0068C5.81946 27.2316 5.84311 26.2776 6.4684 25.6451C7.79446 24.3037 10.6228 22.2188 15.3923 22.2188Z" stroke="#0A0A0A" stroke-width="3" stroke-linecap="round" stroke-linejoin="round"/>
</svg>
