<svg width="20" height="10" viewBox="0 0 20 10" fill="none" xmlns="http://www.w3.org/2000/svg">
<path d="M0 0H20V10H0V0Z" fill="#308738"/>
<path d="M0 0H20V5H0V0Z" fill="#3081F7"/>
<path d="M0 3.19995H20V6.79995H0V3.19995Z" fill="#EE162E"/>
<path d="M0 3.40002H20V6.60002H0V3.40002Z" fill="white"/>
<path d="M2.79961 2.80002C3.46235 2.80002 3.99961 2.26277 3.99961 1.60002C3.99961 0.937283 3.46235 0.400024 2.79961 0.400024C2.13687 0.400024 1.59961 0.937283 1.59961 1.60002C1.59961 2.26277 2.13687 2.80002 2.79961 2.80002Z" fill="white"/>
<path d="M3.2 2.80002C3.86274 2.80002 4.4 2.26277 4.4 1.60002C4.4 0.937283 3.86274 0.400024 3.2 0.400024C2.53726 0.400024 2 0.937283 2 1.60002C2 2.26277 2.53726 2.80002 3.2 2.80002Z" fill="#3081F7"/>
<path d="M5.43945 2.32007L5.36529 2.54832L5.47942 2.5854" fill="white"/>
<path d="M5.43945 2.32007L5.51362 2.54832L5.39949 2.5854" fill="white"/>
<path d="M5.66699 2.48584H5.42699V2.60584" fill="white"/>
<path d="M5.66699 2.48584L5.47283 2.62691L5.40229 2.52983" fill="white"/>
<path d="M5.21094 2.48596L5.4051 2.62703L5.47564 2.52995" fill="white"/>
<path d="M5.21094 2.48596H5.45094V2.60596" fill="white"/>
<path d="M5.58008 2.75427L5.50591 2.52602L5.39179 2.5631" fill="white"/>
<path d="M5.58008 2.75427L5.38591 2.6132L5.45645 2.51612" fill="white"/>
<path d="M5.29785 2.75415L5.49202 2.61308L5.42148 2.516" fill="white"/>
<path d="M5.29785 2.75415L5.37202 2.5259L5.48614 2.56298" fill="white"/>
<path d="M5.43945 1.35999L5.36529 1.58824L5.47942 1.62532" fill="white"/>
<path d="M5.43945 1.35999L5.51362 1.58824L5.39949 1.62532" fill="white"/>
<path d="M5.66699 1.52576H5.42699V1.64576" fill="white"/>
<path d="M5.66699 1.52576L5.47283 1.66683L5.40229 1.56974" fill="white"/>
<path d="M5.21094 1.52588L5.4051 1.66695L5.47564 1.56987" fill="white"/>
<path d="M5.21094 1.52588H5.45094V1.64588" fill="white"/>
<path d="M5.58008 1.79419L5.50591 1.56594L5.39179 1.60302" fill="white"/>
<path d="M5.58008 1.79419L5.38591 1.65312L5.45645 1.55604" fill="white"/>
<path d="M5.29785 1.79407L5.49202 1.653L5.42148 1.55592" fill="white"/>
<path d="M5.29785 1.79407L5.37202 1.56581L5.48614 1.6029" fill="white"/>
<path d="M5.43945 0.400024L5.36529 0.628278L5.47942 0.66536" fill="white"/>
<path d="M5.43945 0.400024L5.51362 0.628278L5.39949 0.66536" fill="white"/>
<path d="M5.66699 0.565796H5.42699V0.685796" fill="white"/>
<path d="M5.66699 0.565796L5.47283 0.706864L5.40229 0.609782" fill="white"/>
<path d="M5.21094 0.565918L5.4051 0.706986L5.47564 0.609904" fill="white"/>
<path d="M5.21094 0.565918H5.45094V0.685918" fill="white"/>
<path d="M5.58008 0.834229L5.50591 0.605975L5.39179 0.643057" fill="white"/>
<path d="M5.58008 0.834229L5.38591 0.69316L5.45645 0.596078" fill="white"/>
<path d="M5.29785 0.834106L5.49202 0.693038L5.42148 0.595956" fill="white"/>
<path d="M5.29785 0.834106L5.37202 0.605853L5.48614 0.642935" fill="white"/>
<path d="M6.39941 2.32007L6.32525 2.54832L6.43938 2.5854" fill="white"/>
<path d="M6.39941 2.32007L6.47358 2.54832L6.35945 2.5854" fill="white"/>
<path d="M6.62695 2.48584H6.38695V2.60584" fill="white"/>
<path d="M6.62695 2.48584L6.43279 2.62691L6.36225 2.52983" fill="white"/>
<path d="M6.1709 2.48596L6.36506 2.62703L6.4356 2.52995" fill="white"/>
<path d="M6.1709 2.48596H6.4109V2.60596" fill="white"/>
<path d="M6.54004 2.75427L6.46587 2.52602L6.35175 2.5631" fill="white"/>
<path d="M6.54004 2.75427L6.34587 2.6132L6.41641 2.51612" fill="white"/>
<path d="M6.25781 2.75415L6.45198 2.61308L6.38144 2.516" fill="white"/>
<path d="M6.25781 2.75415L6.33198 2.5259L6.4461 2.56298" fill="white"/>
<path d="M6.39941 1.35999L6.32525 1.58824L6.43938 1.62532" fill="white"/>
<path d="M6.39941 1.35999L6.47358 1.58824L6.35945 1.62532" fill="white"/>
<path d="M6.62695 1.52576H6.38695V1.64576" fill="white"/>
<path d="M6.62695 1.52576L6.43279 1.66683L6.36225 1.56974" fill="white"/>
<path d="M6.1709 1.52588L6.36506 1.66695L6.4356 1.56987" fill="white"/>
<path d="M6.1709 1.52588H6.4109V1.64588" fill="white"/>
<path d="M6.54004 1.79419L6.46587 1.56594L6.35175 1.60302" fill="white"/>
<path d="M6.54004 1.79419L6.34587 1.65312L6.41641 1.55604" fill="white"/>
<path d="M6.25781 1.79407L6.45198 1.653L6.38144 1.55592" fill="white"/>
<path d="M6.25781 1.79407L6.33198 1.56581L6.4461 1.6029" fill="white"/>
<path d="M6.39941 0.400024L6.32525 0.628278L6.43938 0.66536" fill="white"/>
<path d="M6.39941 0.400024L6.47358 0.628278L6.35945 0.66536" fill="white"/>
<path d="M6.62695 0.565796H6.38695V0.685796" fill="white"/>
<path d="M6.62695 0.565796L6.43279 0.706864L6.36225 0.609782" fill="white"/>
<path d="M6.1709 0.565918L6.36506 0.706986L6.4356 0.609904" fill="white"/>
<path d="M6.1709 0.565918H6.4109V0.685918" fill="white"/>
<path d="M6.54004 0.834229L6.46587 0.605975L6.35175 0.643057" fill="white"/>
<path d="M6.54004 0.834229L6.34587 0.69316L6.41641 0.596078" fill="white"/>
<path d="M6.25781 0.834106L6.45198 0.693038L6.38144 0.595956" fill="white"/>
<path d="M6.25781 0.834106L6.33198 0.605853L6.4461 0.642935" fill="white"/>
<path d="M7.35938 2.32007L7.28521 2.54832L7.39934 2.5854" fill="white"/>
<path d="M7.35938 2.32007L7.43354 2.54832L7.31941 2.5854" fill="white"/>
<path d="M7.58691 2.48584H7.34691V2.60584" fill="white"/>
<path d="M7.58691 2.48584L7.39275 2.62691L7.32222 2.52983" fill="white"/>
<path d="M7.13086 2.48596L7.32502 2.62703L7.39556 2.52995" fill="white"/>
<path d="M7.13086 2.48596H7.37086V2.60596" fill="white"/>
<path d="M7.5 2.75427L7.42584 2.52602L7.31171 2.5631" fill="white"/>
<path d="M7.5 2.75427L7.30584 2.6132L7.37637 2.51612" fill="white"/>
<path d="M7.21777 2.75415L7.41194 2.61308L7.3414 2.516" fill="white"/>
<path d="M7.21777 2.75415L7.29194 2.5259L7.40606 2.56298" fill="white"/>
<path d="M7.35938 1.35999L7.28521 1.58824L7.39934 1.62532" fill="white"/>
<path d="M7.35938 1.35999L7.43354 1.58824L7.31941 1.62532" fill="white"/>
<path d="M7.58691 1.52576H7.34691V1.64576" fill="white"/>
<path d="M7.58691 1.52576L7.39275 1.66683L7.32222 1.56974" fill="white"/>
<path d="M7.13086 1.52588L7.32502 1.66695L7.39556 1.56987" fill="white"/>
<path d="M7.13086 1.52588H7.37086V1.64588" fill="white"/>
<path d="M7.5 1.79419L7.42584 1.56594L7.31171 1.60302" fill="white"/>
<path d="M7.5 1.79419L7.30584 1.65312L7.37637 1.55604" fill="white"/>
<path d="M7.21777 1.79407L7.41194 1.653L7.3414 1.55592" fill="white"/>
<path d="M7.21777 1.79407L7.29194 1.56581L7.40606 1.6029" fill="white"/>
<path d="M7.35938 0.400024L7.28521 0.628278L7.39934 0.66536" fill="white"/>
<path d="M7.35938 0.400024L7.43354 0.628278L7.31941 0.66536" fill="white"/>
<path d="M7.58691 0.565796H7.34691V0.685796" fill="white"/>
<path d="M7.58691 0.565796L7.39275 0.706864L7.32222 0.609782" fill="white"/>
<path d="M7.13086 0.565918L7.32502 0.706986L7.39556 0.609904" fill="white"/>
<path d="M7.13086 0.565918H7.37086V0.685918" fill="white"/>
<path d="M7.5 0.834229L7.42584 0.605975L7.31171 0.643057" fill="white"/>
<path d="M7.5 0.834229L7.30584 0.69316L7.37637 0.596078" fill="white"/>
<path d="M7.21777 0.834106L7.41194 0.693038L7.3414 0.595956" fill="white"/>
<path d="M7.21777 0.834106L7.29194 0.605853L7.40606 0.642935" fill="white"/>
<path d="M3.51953 2.32007L3.44537 2.54832L3.55949 2.5854" fill="white"/>
<path d="M3.51953 2.32007L3.5937 2.54832L3.47957 2.5854" fill="white"/>
<path d="M3.74707 2.48584H3.50707V2.60584" fill="white"/>
<path d="M3.74707 2.48584L3.55291 2.62691L3.48237 2.52983" fill="white"/>
<path d="M3.29102 2.48596L3.48518 2.62703L3.55571 2.52995" fill="white"/>
<path d="M3.29102 2.48596H3.53102V2.60596" fill="white"/>
<path d="M3.66016 2.75427L3.58599 2.52602L3.47187 2.5631" fill="white"/>
<path d="M3.66016 2.75427L3.46599 2.6132L3.53653 2.51612" fill="white"/>
<path d="M3.37793 2.75415L3.57209 2.61308L3.50156 2.516" fill="white"/>
<path d="M3.37793 2.75415L3.45209 2.5259L3.56622 2.56298" fill="white"/>
<path d="M4.47949 2.32007L4.40533 2.54832L4.51945 2.5854" fill="white"/>
<path d="M4.47949 2.32007L4.55366 2.54832L4.43953 2.5854" fill="white"/>
<path d="M4.70703 2.48584H4.46703V2.60584" fill="white"/>
<path d="M4.70703 2.48584L4.51287 2.62691L4.44233 2.52983" fill="white"/>
<path d="M4.25098 2.48596L4.44514 2.62703L4.51567 2.52995" fill="white"/>
<path d="M4.25098 2.48596H4.49098V2.60596" fill="white"/>
<path d="M4.62012 2.75427L4.54595 2.52602L4.43183 2.5631" fill="white"/>
<path d="M4.62012 2.75427L4.42595 2.6132L4.49649 2.51612" fill="white"/>
<path d="M4.33789 2.75415L4.53205 2.61308L4.46152 2.516" fill="white"/>
<path d="M4.33789 2.75415L4.41205 2.5259L4.52618 2.56298" fill="white"/>
<path d="M4.47949 1.35999L4.40533 1.58824L4.51945 1.62532" fill="white"/>
<path d="M4.47949 1.35999L4.55366 1.58824L4.43953 1.62532" fill="white"/>
<path d="M4.70703 1.52576H4.46703V1.64576" fill="white"/>
<path d="M4.70703 1.52576L4.51287 1.66683L4.44233 1.56974" fill="white"/>
<path d="M4.25098 1.52588L4.44514 1.66695L4.51567 1.56987" fill="white"/>
<path d="M4.25098 1.52588H4.49098V1.64588" fill="white"/>
<path d="M4.62012 1.79419L4.54595 1.56594L4.43183 1.60302" fill="white"/>
<path d="M4.62012 1.79419L4.42595 1.65312L4.49649 1.55604" fill="white"/>
<path d="M4.33789 1.79407L4.53205 1.653L4.46152 1.55592" fill="white"/>
<path d="M4.33789 1.79407L4.41205 1.56581L4.52618 1.6029" fill="white"/>
</svg>
