<svg width="37" height="36" viewBox="0 0 37 36" fill="none" xmlns="http://www.w3.org/2000/svg">
<path d="M23.25 31.5V19.5C23.25 19.1022 23.092 18.7206 22.8107 18.4393C22.5294 18.158 22.1478 18 21.75 18H15.75C15.3522 18 14.9706 18.158 14.6893 18.4393C14.408 18.7206 14.25 19.1022 14.25 19.5V31.5" stroke="#0D0D0D" stroke-width="1.5" stroke-linecap="round" stroke-linejoin="round"/>
<path d="M5.25 15C5.2499 14.5636 5.345 14.1324 5.52868 13.7366C5.71236 13.3407 5.9802 12.9897 6.3135 12.708L16.8135 3.7095C17.355 3.25186 18.041 3.00078 18.75 3.00078C19.459 3.00078 20.145 3.25186 20.6865 3.7095L31.1865 12.708C31.5198 12.9897 31.7876 13.3407 31.9713 13.7366C32.155 14.1324 32.2501 14.5636 32.25 15V28.5C32.25 29.2956 31.9339 30.0587 31.3713 30.6213C30.8087 31.1839 30.0456 31.5 29.25 31.5H8.25C7.45435 31.5 6.69129 31.1839 6.12868 30.6213C5.56607 30.0587 5.25 29.2956 5.25 28.5V15Z" stroke="#0D0D0D" stroke-width="1.5" stroke-linecap="round" stroke-linejoin="round"/>
</svg>
