<svg width="24" height="25" viewBox="0 0 24 25" fill="none" xmlns="http://www.w3.org/2000/svg">
<path d="M19 7.5V4.5C19 4.23478 18.8946 3.98043 18.7071 3.79289C18.5196 3.60536 18.2652 3.5 18 3.5H5C4.46957 3.5 3.96086 3.71071 3.58579 4.08579C3.21071 4.46086 3 4.96957 3 5.5C3 6.03043 3.21071 6.53914 3.58579 6.91421C3.96086 7.28929 4.46957 7.5 5 7.5H20C20.2652 7.5 20.5196 7.60536 20.7071 7.79289C20.8946 7.98043 21 8.23478 21 8.5V12.5M21 12.5H18C17.4696 12.5 16.9609 12.7107 16.5858 13.0858C16.2107 13.4609 16 13.9696 16 14.5C16 15.0304 16.2107 15.5391 16.5858 15.9142C16.9609 16.2893 17.4696 16.5 18 16.5H21C21.2652 16.5 21.5196 16.3946 21.7071 16.2071C21.8946 16.0196 22 15.7652 22 15.5V13.5C22 13.2348 21.8946 12.9804 21.7071 12.7929C21.5196 12.6054 21.2652 12.5 21 12.5Z" stroke="#6C52FF" stroke-width="2" stroke-linecap="round" stroke-linejoin="round"/>
<path d="M3 5.5V19.5C3 20.0304 3.21071 20.5391 3.58579 20.9142C3.96086 21.2893 4.46957 21.5 5 21.5H20C20.2652 21.5 20.5196 21.3946 20.7071 21.2071C20.8946 21.0196 21 20.7652 21 20.5V16.5" stroke="#6C52FF" stroke-width="2" stroke-linecap="round" stroke-linejoin="round"/>
</svg>
